<?xml version="1.0" encoding="iso-8859-1"?>
<!-- Generator: Adobe Illustrator 17.0.1, SVG Export Plug-In . SVG Version: 6.00 Build 0)  -->
<!DOCTYPE svg PUBLIC "-//W3C//DTD SVG 1.1//EN" "http://www.w3.org/Graphics/SVG/1.1/DTD/svg11.dtd">
<svg version="1.1" id="Layer_1" xmlns="http://www.w3.org/2000/svg" xmlns:xlink="http://www.w3.org/1999/xlink" x="0px" y="0px"
	 width="64px" height="64px" viewBox="0 0 64 64" style="enable-background:new 0 0 64 64;" xml:space="preserve">
<g id="icon-m-cetificates">
	<rect id="icon-m-cetificates_1_" style="opacity:0;fill:#FFFFFF;" width="64" height="64"/>
	<g style="opacity:0.6;">
		<path style="fill:#FFFFFF;" d="M49.947,52.98H14.052c-1.672,0-3.033-1.36-3.033-3.033V12.052c0-1.672,1.36-3.033,3.033-3.033
			h35.895c1.673,0,3.033,1.36,3.033,3.033v37.895C52.98,51.62,51.62,52.98,49.947,52.98z M14.052,10.98
			c-0.591,0-1.072,0.481-1.072,1.072v37.895c0,0.591,0.481,1.072,1.072,1.072h35.895c0.591,0,1.072-0.481,1.072-1.072V12.052
			c0-0.591-0.481-1.072-1.072-1.072H14.052z"/>
	</g>
	<path style="fill:#FFFFFF;" d="M29.686,41.023c-1.001,0-1.965-0.489-2.646-1.343l-6.773-8.496
		c-0.344-0.432-0.273-1.061,0.158-1.405c0.431-0.344,1.061-0.273,1.405,0.158l6.773,8.497c0.303,0.38,0.687,0.589,1.082,0.589
		c0.001,0,0.001,0,0.002,0c0.395-0.001,0.779-0.212,1.081-0.593l13.768-17.407c0.342-0.432,0.971-0.507,1.404-0.164
		c0.434,0.342,0.507,0.971,0.164,1.405L32.337,39.671c-0.678,0.857-1.643,1.351-2.646,1.353
		C29.69,41.023,29.688,41.023,29.686,41.023z"/>
</g>
</svg>
