<?xml version="1.0" encoding="iso-8859-1"?>
<!-- Generator: Adobe Illustrator 17.0.1, SVG Export Plug-In . SVG Version: 6.00 Build 0)  -->
<!DOCTYPE svg PUBLIC "-//W3C//DTD SVG 1.1//EN" "http://www.w3.org/Graphics/SVG/1.1/DTD/svg11.dtd">
<svg version="1.1" id="Layer_1" xmlns="http://www.w3.org/2000/svg" xmlns:xlink="http://www.w3.org/1999/xlink" x="0px" y="0px"
	 width="64px" height="64px" viewBox="0 0 64 64" style="enable-background:new 0 0 64 64;" xml:space="preserve">
<g id="icon-m-clock">
	<rect id="icon-m-clock_1_" style="opacity:0;fill:#FFFFFF;" width="64" height="64"/>
	<path style="opacity:0.6;fill:#FFFFFF;" d="M32,56.55C18.462,56.55,7.449,45.537,7.449,32C7.449,18.462,18.462,7.448,32,7.448
		c13.537,0,24.551,11.014,24.551,24.552C56.551,45.537,45.537,56.55,32,56.55z M32,9.55C19.622,9.55,9.551,19.621,9.551,32
		c0,12.378,10.07,22.448,22.449,22.448c12.378,0,22.449-10.07,22.449-22.448C54.449,19.621,44.378,9.55,32,9.55z"/>
	<path style="fill:#FFFFFF;" d="M42.499,40.079c-0.192,0-0.387-0.056-0.558-0.171l-10.5-7.08C31.165,32.642,31,32.332,31,31.999
		V13.75c0-0.552,0.448-1,1-1s1,0.448,1,1v17.717l10.059,6.783c0.458,0.309,0.579,0.931,0.271,1.388
		C43.136,39.925,42.82,40.079,42.499,40.079z"/>
</g>
</svg>
