<?xml version="1.0" encoding="UTF-8" standalone="no"?>
<!-- Generator: Adobe Illustrator 19.1.0, SVG Export Plug-In . SVG Version: 6.00 Build 0)  -->

<svg
   xmlns:dc="http://purl.org/dc/elements/1.1/"
   xmlns:cc="http://creativecommons.org/ns#"
   xmlns:rdf="http://www.w3.org/1999/02/22-rdf-syntax-ns#"
   xmlns:svg="http://www.w3.org/2000/svg"
   xmlns="http://www.w3.org/2000/svg"
   xmlns:sodipodi="http://sodipodi.sourceforge.net/DTD/sodipodi-0.dtd"
   xmlns:inkscape="http://www.inkscape.org/namespaces/inkscape"
   version="1.1"
   id="Layer_1"
   x="0px"
   y="0px"
   viewBox="0 0 64 64"
   style="enable-background:new 0 0 64 64;"
   xml:space="preserve"
   inkscape:version="0.48.5 r10040"
   width="100%"
   height="100%"
   sodipodi:docname="icon-m-team.inkscape.svg"><metadata
     id="metadata21"><rdf:RDF><cc:Work
         rdf:about=""><dc:format>image/svg+xml</dc:format><dc:type
           rdf:resource="http://purl.org/dc/dcmitype/StillImage" /><dc:title></dc:title></cc:Work></rdf:RDF></metadata><defs
     id="defs19"><clipPath
       clipPathUnits="userSpaceOnUse"
       id="clipPath3846-7"><path
         style="fill:#000000;fill-opacity:1;stroke:none"
         d="m 23.728814,26.847458 2.98305,0.542372 2.169492,2.576272 0.40678,3.79661 -0.949153,2.711864 -1.355932,1.627119 3.932203,2.440678 1.627119,2.711864 12.067796,3.254237 c -0.007,0.134496 2.21469,-23.774011 2.033899,-24.542372 L 29.288136,17.627119 z"
         id="path3848-5"
         inkscape:connector-curvature="0"
         sodipodi:nodetypes="cccccccccccc" /></clipPath></defs><sodipodi:namedview
     pagecolor="#000000"
     bordercolor="#666666"
     borderopacity="1"
     objecttolerance="10"
     gridtolerance="10"
     guidetolerance="10"
     inkscape:pageopacity="0.36078431"
     inkscape:pageshadow="2"
     inkscape:window-width="1680"
     inkscape:window-height="992"
     id="namedview17"
     showgrid="false"
     inkscape:snap-global="true"
     inkscape:snap-bbox="true"
     inkscape:bbox-paths="false"
     inkscape:snap-object-midpoints="true"
     inkscape:snap-nodes="false"
     inkscape:bbox-nodes="true"
     showguides="true"
     inkscape:guide-bbox="true"
     inkscape:snap-bbox-midpoints="true"
     inkscape:snap-bbox-edge-midpoints="false"
     inkscape:zoom="10.429825"
     inkscape:cx="14.657685"
     inkscape:cy="26.567215"
     inkscape:window-x="0"
     inkscape:window-y="29"
     inkscape:window-maximized="1"
     inkscape:current-layer="Layer_1"><sodipodi:guide
       orientation="1,0"
       position="32,65.394068"
       id="guide4028" /><sodipodi:guide
       orientation="0,1"
       position="-59.390977,31.999578"
       id="guide4030" /></sodipodi:namedview><rect
     y="0"
     x="0"
     height="64"
     width="64"
     style="opacity:0;fill:#ffffff"
     id="icon-m-file-vcard_1_" /><g
     id="g4023"
     transform="translate(0.54746776,-3.1887341)"><path
       inkscape:connector-curvature="0"
       id="path15"
       d="m 39.201322,48.272237 h -15.283 c -0.694,0 -1.351,-0.307 -1.801,-0.84 -0.45,-0.534 -0.642,-1.233 -0.524,-1.919 0.529,-3.096 2.43,-5.745 5.102,-7.229 -1.156,-1.238 -1.814,-2.88 -1.814,-4.632 0,-1.939 0.824,-3.789 2.261,-5.073 1.429,-1.278 3.267,-1.865 5.178,-1.648 3.073,0.346 5.545,2.857 5.877,5.971 0.216,2.018 -0.447,3.961 -1.773,5.382 2.671,1.484 4.573,4.134 5.101,7.229 0.117,0.687 -0.074,1.386 -0.524,1.92 -0.451,0.533 -1.107,0.839 -1.8,0.839 z m -7.645,-19.385 c -1.14,0 -2.218,0.41 -3.082,1.183 -1.013,0.905 -1.594,2.21 -1.594,3.582 0,1.651 0.827,3.162 2.211,4.042 l 1.732,1.101 -1.935,0.686 c -2.782,0.985 -4.822,3.426 -5.325,6.369 -0.024,0.143 0.041,0.245 0.081,0.293 0.041,0.049 0.131,0.13 0.272,0.13 h 15.283 c 0.141,0 0.23,-0.081 0.271,-0.13 0.041,-0.048 0.105,-0.15 0.082,-0.293 -0.503,-2.943 -2.543,-5.384 -5.325,-6.369 l -1.936,-0.686 1.733,-1.101 c 1.543,-0.98 2.379,-2.735 2.182,-4.579 -0.234,-2.19 -1.964,-3.955 -4.113,-4.197 -0.178,-0.021 -0.358,-0.031 -0.537,-0.031 z"
       style="fill:#ffffff" /><path
       style="opacity:0.6;fill:#ffffff"
       clip-path="none"
       d="m 41.03125,18.0625 c -1.651562,-0.01554 -3.218375,0.6005 -4.46875,1.71875 -1.242214,1.109953 -2.028994,2.633516 -2.21875,4.28125 l 0.53125,0.09375 1.59375,1.875 c -0.09916,-0.387578 -0.15625,-0.77475 -0.15625,-1.1875 0,-1.372 0.58075,-2.68875 1.59375,-3.59375 0.864,-0.773 1.9225,-1.1875 3.0625,-1.1875 0.178999,0 0.3845,0.01025 0.5625,0.03125 2.149,0.242 3.85975,2.02875 4.09375,4.21875 0.197,1.844 -0.6445,3.5825 -2.1875,4.5625 L 41.71875,30 l 1.9375,0.65625 c 2.782,0.985 4.8095,3.432 5.3125,6.375 0.023,0.143 -0.0215,0.2645 -0.0625,0.3125 -0.041,0.049 -0.14025,0.125 -0.28125,0.125 l -9.4375,0 1.1875,2 8.25,0 c 0.693,0 1.3615,-0.31075 1.8125,-0.84375 0.45,-0.534 0.617,-1.21925 0.5,-1.90625 -0.528,-3.095 -2.42275,-5.766 -5.09375,-7.25 1.326,-1.421 1.99725,-3.357 1.78125,-5.375 C 47.293,20.97975 44.823,18.471 41.75,18.125 41.511125,18.09787 41.267187,18.06472 41.03125,18.0625 z m -3.875,9.5 0.3125,2.96875 L 37.25,31.125 c 0.341805,-0.180212 0.692589,-0.337779 1.0625,-0.46875 L 40.25,30 38.5,28.875 c -0.551122,-0.350424 -0.986325,-0.792963 -1.34375,-1.3125 z"
       transform="translate(-0.4396801,4.0438623)"
       id="path15-3"
       inkscape:connector-curvature="0" /><path
       style="opacity:0.6;fill:#ffffff"
       clip-path="none"
       d="m 22.75,18.0625 c -0.235937,0.0022 -0.448625,0.03537 -0.6875,0.0625 -3.073,0.346 -5.543,2.85475 -5.875,5.96875 -0.216,2.018 0.424,3.954 1.75,5.375 -2.671,1.484 -4.56575,4.155 -5.09375,7.25 -0.117,0.687 0.08125,1.37225 0.53125,1.90625 0.451,0.533 1.08825,0.84375 1.78125,0.84375 l 8.28125,0 1.1875,-2 -9.4375,0 c -0.141,0 -0.24025,-0.076 -0.28125,-0.125 -0.041,-0.048 -0.11675,-0.1695 -0.09375,-0.3125 0.503,-2.943 2.56175,-5.39 5.34375,-6.375 L 22.09375,30 l -1.75,-1.125 c -1.543,-0.98 -2.3845,-2.7185 -2.1875,-4.5625 0.234,-2.19 1.976,-3.97675 4.125,-4.21875 0.178,-0.021 0.352251,-0.03125 0.53125,-0.03125 1.14,0 2.22975,0.4145 3.09375,1.1875 1.013,0.905 1.59375,2.22175 1.59375,3.59375 0,0.41275 -0.05709,0.799922 -0.15625,1.1875 l 1.5625,-1.875 0.53125,-0.09375 C 29.247586,22.415064 28.460767,20.891027 27.21875,19.78125 25.968375,18.663 24.401562,18.046955 22.75,18.0625 z m 3.90625,9.46875 c -0.359683,0.529943 -0.81518,0.987795 -1.375,1.34375 L 23.5625,30 l 1.90625,0.65625 c 0.370436,0.131157 0.751503,0.288215 1.09375,0.46875 l -0.21875,-0.59375 0.3125,-3 z"
       transform="translate(-0.4396801,4.0438623)"
       id="path15-3-0"
       inkscape:connector-curvature="0" /></g><path
     inkscape:connector-curvature="0"
     id="path5"
     d="m 31.999,56.636922 c -13.583,0 -24.635,-11.052 -24.635,-24.636 0,-13.585 11.052,-24.637 24.635,-24.637 13.585,0 24.637,11.052 24.637,24.637 0,13.584 -11.052,24.636 -24.637,24.636 z m 0,-47.273 c -12.481,0 -22.635,10.155 -22.635,22.637 0,12.481 10.154,22.636 22.635,22.636 12.481,0 22.637,-10.154 22.637,-22.636 0,-12.482 -10.156,-22.637 -22.637,-22.637 z"
     style="opacity:0.6;fill:#ffffff" /></svg>